<svg xmlns="http://www.w3.org/2000/svg" xmlns:xlink="http://www.w3.org/1999/xlink" zoomAndPan="magnify" preserveAspectRatio="xMidYMid meet" version="1.0" viewBox="76.04 148.46 216 78"><defs><g/><clipPath id="9d47788b6f"><path d="M 79.042969 151.464844 L 289.042969 151.464844 L 289.042969 223.464844 L 79.042969 223.464844 Z M 79.042969 151.464844 " clip-rule="nonzero"/></clipPath><clipPath id="ff1756f647"><path d="M 86.328125 158.238281 L 187.332031 158.238281 L 187.332031 216.761719 L 86.328125 216.761719 Z M 86.328125 158.238281 " clip-rule="nonzero"/></clipPath></defs><g clip-path="url(#9d47788b6f)"><path stroke-linecap="butt" transform="matrix(0.75067, 0, 0, 0.749268, 79.042778, 151.46542)" fill="none" stroke-linejoin="miter" d="M 0.000254493 -0.000769689 L 279.750261 -0.000769689 L 279.750261 96.09299 L 0.000254493 96.09299 L 0.000254493 -0.000769689 " stroke="#000000" stroke-width="6" stroke-opacity="1" stroke-miterlimit="4"/></g><g clip-path="url(#ff1756f647)"><path fill="#000000" d="M 86.328125 158.238281 L 187.46875 158.238281 L 187.46875 216.84375 L 86.328125 216.84375 Z M 86.328125 158.238281 " fill-opacity="1" fill-rule="nonzero"/></g><g fill="#ffffff" fill-opacity="1"><g transform="translate(96.877753, 196.618259)"><g><path d="M 2.863281 0 L 14.886719 0 L 14.886719 -2.359375 L 5.335938 -2.359375 L 5.335938 -19.660156 L 2.863281 -19.660156 Z M 2.863281 0 "/></g></g></g><g fill="#ffffff" fill-opacity="1"><g transform="translate(114.764358, 196.618259)"><g><path d="M 2.863281 0 L 15.109375 0 L 15.109375 -2.304688 L 5.335938 -2.304688 L 5.335938 -8.875 L 14.101562 -8.875 L 14.101562 -11.152344 L 5.335938 -11.152344 L 5.335938 -17.359375 L 14.800781 -17.359375 L 14.800781 -19.660156 L 2.863281 -19.660156 Z M 2.863281 0 "/></g></g></g><g fill="#ffffff" fill-opacity="1"><g transform="translate(133.830243, 196.618259)"><g><path d="M 0.476562 0 L 3.117188 0 L 4.914062 -4.464844 L 14.492188 -4.464844 L 16.347656 0 L 18.960938 0 L 10.871094 -19.660156 L 8.566406 -19.660156 Z M 5.871094 -6.769531 L 9.71875 -16.207031 L 13.566406 -6.769531 Z M 5.871094 -6.769531 "/></g></g></g><g fill="#ffffff" fill-opacity="1"><g transform="translate(155.39507, 196.618259)"><g><path d="M 2.863281 0 L 9.660156 0 C 15.699219 0 19.746094 -4.015625 19.746094 -9.832031 C 19.746094 -15.644531 15.699219 -19.660156 9.660156 -19.660156 L 2.863281 -19.660156 Z M 5.335938 -2.359375 L 5.335938 -17.300781 L 9.550781 -17.300781 C 14.128906 -17.300781 17.21875 -14.296875 17.21875 -9.832031 C 17.21875 -5.363281 14.15625 -2.359375 9.660156 -2.359375 Z M 5.335938 -2.359375 "/></g></g></g><g fill="#000000" fill-opacity="1"><g transform="translate(203.471485, 196.769512)"><g><path d="M 2.078125 0 L 15.785156 0 L 15.785156 -5.253906 L 7.75 -5.253906 L 7.75 -19.660156 L 2.078125 -19.660156 Z M 2.078125 0 "/></g></g></g><g fill="#000000" fill-opacity="1"><g transform="translate(219.957388, 196.769512)"><g><path d="M 2.078125 0 L 7.75 0 L 7.75 -19.660156 L 2.078125 -19.660156 Z M 2.078125 0 "/></g></g></g><g fill="#000000" fill-opacity="1"><g transform="translate(229.787148, 196.769512)"><g><path d="M 2.078125 0 L 7.695312 0 L 7.695312 -10.027344 L 15.167969 0 L 19.773438 0 L 19.773438 -19.660156 L 14.183594 -19.660156 L 14.183594 -9.691406 L 6.710938 -19.660156 L 2.078125 -19.660156 Z M 2.078125 0 "/></g></g></g><g fill="#000000" fill-opacity="1"><g transform="translate(251.665374, 196.769512)"><g><path d="M 2.078125 0 L 7.75 0 L 7.75 -7.441406 L 10.222656 -7.441406 L 13.988281 0 L 20.558594 0 L 15.390625 -9.550781 C 15.980469 -10.25 16.515625 -11.179688 16.964844 -12.328125 L 19.886719 -19.660156 L 13.734375 -19.660156 L 11.964844 -14.746094 C 11.375 -13.03125 10.730469 -12.609375 8.707031 -12.609375 L 7.75 -12.609375 L 7.75 -19.660156 L 2.078125 -19.660156 Z M 2.078125 0 "/></g></g></g></svg>